PathFileType	4	(X/Y/Z)	34_2_90_p1_0-315_filt_butterworth.trc
DataRate	CameraRate	NumFrames	NumMarkers	Units	OrigDataRate	OrigDataStartFrame	OrigNumFrames
60.0	60.0	6	27	m	60.0	118	315
Frame#	Time	RHip			RKnee			RAnkle			RBigToe			RSmallToe			RHeel			LHip			LKnee			LAnkle			LBigToe			LSmallToe			LHeel			Neck			Head			Nose			RShoulder			RElbow			RWrist			RThumb			RIndex			RPinky			LShoulder			LElbow			LWrist			LThumb			LIndex			LPinky			
		X1	Y1	Z1	X2	Y2	Z2	X3	Y3	Z3	X4	Y4	Z4	X5	Y5	Z5	X6	Y6	Z6	X7	Y7	Z7	X8	Y8	Z8	X9	Y9	Z9	X10	Y10	Z10	X11	Y11	Z11	X12	Y12	Z12	X13	Y13	Z13	X14	Y14	Z14	X15	Y15	Z15	X16	Y16	Z16	X17	Y17	Z17	X18	Y18	Z18	X19	Y19	Z19	X20	Y20	Z20	X21	Y21	Z21	X22	Y22	Z22	X23	Y23	Z23	X24	Y24	Z24	X25	Y25	Z25	X26	Y26	Z26	X27	Y27	Z27	
118	1.9666666666666663	0.39342394706410755	0.4637898585253229	0.9579465792154751	0.40374714473870493	0.6543962013444122	1.3741208818807567	0.3782330147457663	0.786520695805879	1.7477381640113316	0.34416081708093116	0.5822018187766984	1.7865920223409142	0.4043975623178925	0.6166006639150582	1.7925710184061634	0.3527987029328982	0.8824278594249867	1.7992744190191725	0.1558358593261278	0.5399428147278216	0.9747610575557851	0.1620992960265873	0.6427531917865552	1.3733583990403735	0.17397495433438379	0.7573402361523852	1.7420987676092419	0.19290241430315294	0.5431381226079314	1.7681365238303255	0.13943441913388546	0.5963323951354853	1.7766916851891623	0.1935347460917404	0.8312547294736898	1.8010744357192108	0.2637057509353191	0.4399690294204323	0.44173443767432874	0.2742009378153296	0.25290945681853017	0.20378475202039043	0.25800409306248573	0.25389230300453075	0.36335562278427846	0.42335667593243087	0.3970363847496306	0.5079013787849352	0.5037272519078686	0.4035973345587658	0.7248699088113721	0.3961868675753184	0.2141468504251929	0.7590535817009995	0.29625000039783983	0.2091194576571297	0.7210359099970141	0.2910829495983158	0.17811590070403538	0.7329704606909675	0.3003036166312913	0.20084340662355593	0.7935867823365198	0.11212424230768503	0.4523683608123627	0.5097669752021989	0.02857803325229322	0.47242048017580845	0.7497617178327769	0.16297764752083713	0.3121572806830193	0.8710951128352603	0.25224933330972854	0.2920928594227513	0.8858953985770038	0.2558331840702279	0.2915801235246288	0.9370755849994272	0.22678648677508442	0.2617234952324189	0.9496757626675758
119	1.9833333333333332	0.3943379096925925	0.4650570582216058	0.9561666354311051	0.4048482564457163	0.6579135875522849	1.374732395306346	0.37822429184306217	0.7864936436158755	1.7477271477025487	0.3437089152903098	0.5791860385809494	1.7861419004434214	0.4038958811402676	0.6145645535182003	1.7924573222851379	0.3528027014765414	0.8824613546806063	1.7991628243018143	0.1551729129642685	0.5387285357001882	0.9761043164170775	0.16203689182417313	0.642357525680059	1.3732057197936207	0.1742448590476839	0.7569014478831527	1.7420483902111843	0.19197267363563109	0.5428888703249587	1.7680890108053906	0.13943642543181267	0.5964108077720964	1.776736542275025	0.19359922023731832	0.8305344906461407	1.802169134974619	0.26374117032747474	0.439772653999733	0.4416438938947443	0.2770330852945921	0.26023995376861087	0.20280501265397977	0.26142995551029635	0.25383628438935874	0.3614849302691685	0.42482689440614013	0.40002226005159003	0.5054310187468095	0.5082216890650938	0.4177002593241251	0.7206492376705472	0.40145146286284544	0.22419847237632884	0.7627745201509822	0.3015037991548526	0.21618689457062334	0.7436164839572494	0.297957771295081	0.19270233791758695	0.7535758362851734	0.3131988883577726	0.21036273658627805	0.8119758041116717	0.1118609968439589	0.44896024223874575	0.5103446885968883	0.02682243153914103	0.46721339130223566	0.7497927897143247	0.16157055733158654	0.3121480969051939	0.8701503847392237	0.24816841638861073	0.2851696798671246	0.8823775335521904	0.25118113351520366	0.2841880703187637	0.9343752018728982	0.2242022710086866	0.26135050260826126	0.9494680126605435
120	2.0	0.39568936501465896	0.46310570304829807	0.9536702171478427	0.40541102151657743	0.6591327367713112	1.3755815598233254	0.37821989907957765	0.7864440046409857	1.7477227981211874	0.34313860447303074	0.5749442449770401	1.784908982737956	0.4033329979010105	0.6102810698099179	1.7921046783600776	0.35279966650562783	0.8823910303186657	1.7990790495707099	0.15518295985194652	0.5347235988083407	0.9767806211134464	0.1620645781177311	0.6422556594209943	1.3730285828921363	0.17436804689266241	0.7571045279827102	1.7426918926630277	0.19032821188085486	0.5426178108262096	1.7681208307036544	0.139413736534997	0.5965068030485771	1.776850988008325	0.1935641689878792	0.8293520716424055	1.8026479535639566	0.26377320752319955	0.4396135159246945	0.4415459159328157	0.2792288635417049	0.2671498980700747	0.20146525277831467	0.26402523861002597	0.25133921594332576	0.360050615833855	0.42599576649188914	0.4035480004497723	0.5022641981252933	0.5112125316275717	0.43015371704674693	0.7175252978918215	0.4068677392174633	0.23540023176509542	0.7671465013254316	0.3087329285824351	0.21996114759595198	0.7656136985534607	0.30772329274299537	0.2043503836247233	0.7764713364240768	0.3283591781867525	0.21612708526866858	0.8301332604281592	0.11171419924306683	0.4417543748910888	0.5093338900747825	0.025624611252271428	0.4622019888043487	0.7499331189388565	0.15898573589929743	0.3115460879596582	0.8679562195985966	0.2459222612062536	0.27848147825900155	0.879164419723709	0.24816686712877128	0.27348936454593814	0.9294507708698408	0.2215417158741735	0.2608621791114537	0.9493167897302517
121	2.0166666666666666	0.3971144422466719	0.4614625923055214	0.9517783197037719	0.4055463701972014	0.6589530530960654	1.3767297633291617	0.3782079652614888	0.7863667159395967	1.7477235226819423	0.34254782541423934	0.5712996671461146	1.7831774610474063	0.4031932694572442	0.6050472900640752	1.7913053165666344	0.3527750057658078	0.8822442945674079	1.7990676126032903	0.15548461196490987	0.5293909136578053	0.9760478113123073	0.16225863599470666	0.6423734800232782	1.372959895114664	0.17448097520494787	0.7579959023395868	1.744238005851467	0.1886883213115699	0.5436084898235163	1.7686695593756256	0.13940347213068613	0.5965412641400111	1.7769220824004825	0.19329507045608244	0.827895863375095	1.8026343730058818	0.2637733058423904	0.43941207546956795	0.44148397503849246	0.280372533200273	0.2713109825541254	0.19965004207353815	0.26647439672426	0.2477494231369351	0.35897727539201213	0.4265642676256811	0.4057376999746788	0.498526791906257	0.5125340055392674	0.4403191487484145	0.7158140548548243	0.41240008022767816	0.24692004953539787	0.7721155414765213	0.3169450826972035	0.2213361837656059	0.7882914206618945	0.31981669991827605	0.20874048811371482	0.8018827503165672	0.34793042973076205	0.21871226948125522	0.8449538241789034	0.11158137946228744	0.42968988299964517	0.5077829563773384	0.024768143444949976	0.4592989765532539	0.7500211892431073	0.1559679181130684	0.30971617903610615	0.8651699564152763	0.2454483788958483	0.2741162276171284	0.8762300421760288	0.24664365019054246	0.263274898352475	0.9234500770354479	0.2194381391690789	0.2602707689573662	0.9491258374561844
122	2.033333333333333	0.3985042326883846	0.4622467335001057	0.9516035863761919	0.4053987837097936	0.6581809251729582	1.3780056987166063	0.3781859194528959	0.7862552209281735	1.747728286777676	0.3419510129494654	0.5693189327484518	1.7817608558492535	0.4039838784112539	0.6011104154174435	1.7898278987880765	0.3527401935294395	0.8820287696668563	1.7991053396624286	0.1556454112272193	0.5253685814758283	0.9747606404386786	0.16255316954384894	0.6426164957170732	1.3730517301410785	0.174728538836072	0.7591737506225147	1.7462612355398814	0.18803363492431485	0.5469982643859397	1.7700694044913103	0.13941450638387615	0.596524972171044	1.77696216873476	0.1926652822425886	0.8267239444537425	1.8021750511214716	0.26369677988703755	0.43930610709358087	0.4414685353571482	0.2809064997198115	0.27356190021732785	0.1972697806741038	0.26883902267383586	0.2451966888982894	0.35766414114150064	0.42648276036175914	0.40610994382088605	0.4950380906361045	0.5126564399641514	0.4470636790479743	0.7149752396786725	0.4184639839762432	0.256906955423678	0.7776599491746831	0.32468895726787095	0.2213590380690563	0.8119252367322791	0.3326380666599317	0.20375203074249473	0.8257936312267166	0.3715836056709947	0.22095565292395375	0.8561231218067176	0.11151018298985853	0.4166787839887409	0.5068310368840735	0.02399970950650983	0.45628795778524284	0.7496508541467278	0.15359943556890748	0.3059603752856292	0.8630273272915148	0.24579619151108373	0.2720537325974786	0.8734651472598343	0.24598317899161976	0.2574233158600599	0.9174751695256972	0.21805189359763105	0.2598192093226771	0.9486641965510694
123	2.05	0.3998704530000174	0.46496839501838744	0.9526662099910046	0.4049498992413074	0.6567104212821734	1.3789543220221594	0.37816217887078807	0.7861348844745074	1.747737057598532	0.34147585943012904	0.5686692098730375	1.781229601737642	0.4060423253066457	0.5993100562996777	1.7879319613382145	0.35273778105274817	0.8818007549486657	1.799141789054277	0.1556210579253167	0.5235697475331876	0.974027785677002	0.1627862833397482	0.642630823923384	1.3727358395172096	0.1750509504101996	0.7600422376772711	1.7478154084374082	0.18894407832349358	0.5519533195042305	1.7719431176313527	0.13944250821644366	0.596480285181154	1.7769964993471563	0.1918215028577195	0.825674629725603	1.8011607651313521	0.26352913988116916	0.439396055949078	0.44148376271738365	0.281528144111889	0.27620932077959787	0.19477886255842675	0.2706084222266535	0.2442718982202463	0.3558092304634012	0.426181503573683	0.40578333213193823	0.49285797320109215	0.5119413403006374	0.45107127369406774	0.7141588515209145	0.4257431020152214	0.26474496083993876	0.7833185307107775	0.3312272278766658	0.22094840536876134	0.8324942446750125	0.34488337389433793	0.1926048841438337	0.8424494519571715	0.393938813421489	0.2260090970195269	0.8650681758866889	0.11155235756576849	0.40802504677731344	0.5070722125776962	0.022970774252919355	0.45017183748753037	0.7484558987015799	0.1521537284722422	0.3003327447897761	0.8620015605214948	0.24615148285696892	0.2697465801902152	0.8711533435274675	0.24572893002029758	0.2542380799972844	0.9115630423064731	0.2165495744926403	0.2595996527803531	0.9477477031621738
